<svg width="437" height="46" viewBox="0 0 437 46" fill="none" xmlns="http://www.w3.org/2000/svg">
<path d="M0.3085 44V42.976L6.1965 42.336H7.0925L12.9165 42.976V44H0.3085ZM0.3085 2.144V1.12H7.2205V2.912H6.9645L0.3085 2.144ZM5.7485 44V1.76H7.4765V20.96V44H5.7485ZM21.7485 44L7.2845 4.512H6.0685V1.12H11.0605L24.6285 38.624H23.3485L23.6045 37.856L37.0445 1.12H38.1965V4.064H37.8125L37.6205 4.512L23.1565 44H21.7485ZM32.5005 44V42.976L38.6445 42.208H40.5645L47.2205 42.976V44H32.5005ZM37.0445 44C37.1298 42.2933 37.1938 40.3093 37.2365 38.048C37.2792 35.744 37.3005 33.3547 37.3005 30.88C37.3432 28.4053 37.3645 26.0373 37.3645 23.776V1.12H42.1645C42.0792 2.82666 42.0152 4.81066 41.9725 7.072C41.9298 9.29066 41.9085 11.616 41.9085 14.048C41.9085 16.4373 41.9085 18.7413 41.9085 20.96V23.776C41.9085 26.0373 41.9085 28.4053 41.9085 30.88C41.9085 33.3547 41.9298 35.744 41.9725 38.048C42.0152 40.3093 42.0792 42.2933 42.1645 44H37.0445ZM38.6445 2.912V1.12H47.2205V2.144L40.5645 2.912H38.6445ZM50.2055 44V42.976L55.0695 42.336H56.3495L62.4295 42.976V44H50.2055ZM54.0455 44L68.0615 0.607998H69.7255L84.0615 44H78.9415L67.0375 5.472H68.1895L67.9335 6.24L55.9655 44H54.0455ZM60.1255 28.704V27.168H76.5095V28.704H60.1255ZM72.8615 44V42.976L79.7735 42.208H82.4615L87.8375 42.976V44H72.8615ZM93.8545 44V42.976L101.279 42.208H103.199L110.623 42.976V44H93.8545ZM99.7425 44C99.8278 42.2933 99.8918 40.3093 99.9345 38.048C99.9772 35.744 99.9985 33.3547 99.9985 30.88C99.9985 28.4053 99.9985 26.0373 99.9985 23.776V20.96C99.9985 18.7413 99.9985 16.4373 99.9985 14.048C99.9985 11.616 99.9772 9.29066 99.9345 7.072C99.8918 4.81066 99.8278 2.82666 99.7425 1.12H104.799C104.713 2.82666 104.649 4.81066 104.607 7.072C104.564 9.29066 104.543 11.616 104.543 14.048C104.543 16.4373 104.543 18.7413 104.543 20.96V23.776C104.543 26.0373 104.543 28.4053 104.543 30.88C104.543 33.3547 104.564 35.744 104.607 38.048C104.649 40.3093 104.713 42.2933 104.799 44H99.7425ZM85.8545 13.152L86.6225 1.12H117.919L118.687 13.152H117.663L113.759 1.888L116.191 2.656H88.3505L90.7825 1.888L86.8785 13.152H85.8545ZM122.996 44V42.976L129.652 42.208H131.444V44H122.996ZM128.116 44C128.201 42.2933 128.265 40.3093 128.308 38.048C128.351 35.744 128.372 33.3547 128.372 30.88C128.372 28.4053 128.372 26.0373 128.372 23.776V20.96C128.372 18.7413 128.372 16.4373 128.372 14.048C128.372 11.616 128.351 9.29066 128.308 7.072C128.265 4.81066 128.201 2.82666 128.116 1.12H133.172C133.087 2.82666 133.023 4.81066 132.98 7.072C132.937 9.29066 132.916 11.616 132.916 14.048C132.916 16.4373 132.916 18.7413 132.916 20.96V23.776C132.916 26.0373 132.916 28.4053 132.916 30.88C132.916 33.3547 132.937 35.744 132.98 38.048C133.023 40.3093 133.087 42.2933 133.172 44H128.116ZM130.612 44V42.464H150.004L147.572 43.232L151.476 31.968H152.5L151.732 44H130.612ZM130.612 22.88V21.344H142.132V22.88H130.612ZM143.22 29.152L141.3 22.752V21.472L143.22 15.072H144.244V29.152H143.22ZM122.996 2.144V1.12H131.444V2.912H129.652L122.996 2.144ZM150.452 12.576L146.548 1.888L148.98 2.656H130.548V1.12H150.708L151.476 12.576H150.452ZM176.446 45.024C173.758 45.024 171.326 44.512 169.15 43.488C166.974 42.464 165.246 40.8213 163.966 38.56C162.729 36.2987 162.11 33.312 162.11 29.6V20.96C162.11 18.7413 162.11 16.4373 162.11 14.048C162.11 11.616 162.089 9.29066 162.046 7.072C162.003 4.81066 161.939 2.82666 161.854 1.12H166.91C166.825 2.82666 166.761 4.81066 166.718 7.072C166.675 9.29066 166.654 11.616 166.654 14.048C166.654 16.4373 166.654 18.7413 166.654 20.96V28.832C166.654 32.0747 167.081 34.6773 167.934 36.64C168.83 38.56 170.046 39.968 171.582 40.864C173.161 41.7173 174.953 42.144 176.958 42.144C179.219 42.144 181.182 41.7387 182.846 40.928C184.553 40.0747 185.854 38.6453 186.75 36.64C187.689 34.592 188.158 31.776 188.158 28.192V1.12H189.886V28.576C189.886 32.5867 189.31 35.808 188.158 38.24C187.006 40.6293 185.427 42.3573 183.422 43.424C181.417 44.4907 179.091 45.024 176.446 45.024ZM157.246 2.144V1.12H171.966V2.144L165.374 2.912H163.454L157.246 2.144ZM182.782 2.144V1.12H194.622V2.144L189.438 2.784H188.67L182.782 2.144ZM209.762 45.024C207.5 45.024 205.388 44.704 203.426 44.064C201.506 43.424 199.863 42.6347 198.498 41.696L199.01 31.968H200.034L202.658 43.232L199.842 41.696V40.672C201.079 41.3973 202.188 41.9947 203.17 42.464C204.151 42.8907 205.154 43.2107 206.178 43.424C207.244 43.5947 208.439 43.68 209.762 43.68C211.639 43.68 213.303 43.36 214.753 42.72C216.204 42.08 217.335 41.056 218.146 39.648C218.999 38.24 219.426 36.384 219.426 34.08C219.426 32.416 219.063 31.0293 218.338 29.92C217.612 28.768 216.631 27.7867 215.394 26.976C214.199 26.1653 212.898 25.44 211.49 24.8L209.186 23.712C207.564 22.9013 205.986 22.0053 204.45 21.024C202.914 20 201.655 18.7413 200.674 17.248C199.735 15.712 199.266 13.792 199.266 11.488C199.266 9.01333 199.82 6.944 200.93 5.28C202.082 3.57333 203.618 2.29333 205.538 1.44C207.458 0.543997 209.57 0.0959969 211.874 0.0959969C214.007 0.0959969 215.863 0.37333 217.442 0.927998C219.02 1.44 220.407 2.18667 221.602 3.168L221.346 12.384H220.322L217.506 1.824L220.514 3.104L220.77 4.768C219.319 3.27467 217.868 2.35733 216.418 2.016C215.01 1.632 213.495 1.44 211.874 1.44C210.295 1.44 208.823 1.71733 207.458 2.272C206.135 2.82666 205.047 3.76533 204.194 5.088C203.383 6.368 202.978 8.096 202.978 10.272C202.978 11.8933 203.34 13.28 204.066 14.432C204.791 15.5413 205.751 16.5013 206.946 17.312C208.183 18.1227 209.506 18.8693 210.914 19.552L213.154 20.64C214.86 21.4507 216.482 22.368 218.018 23.392C219.596 24.3733 220.876 25.632 221.858 27.168C222.882 28.6613 223.394 30.6027 223.394 32.992C223.394 35.4667 222.86 37.6213 221.794 39.456C220.727 41.248 219.17 42.6347 217.122 43.616C215.116 44.5547 212.663 45.024 209.762 45.024ZM241.496 44V42.976L248.152 42.208H250.136L257.56 42.976V44H241.496ZM246.616 44C246.701 42.2933 246.765 40.3093 246.808 38.048C246.851 35.744 246.872 33.3547 246.872 30.88C246.872 28.4053 246.872 26.0373 246.872 23.776V20.96C246.872 18.7413 246.872 16.4373 246.872 14.048C246.872 11.616 246.851 9.29066 246.808 7.072C246.765 4.81066 246.701 2.82666 246.616 1.12H251.672C251.587 2.82666 251.523 4.81066 251.48 7.072C251.437 9.29066 251.416 11.616 251.416 14.048C251.416 16.4373 251.416 18.7413 251.416 20.96V23.776C251.416 26.0373 251.416 28.4053 251.416 30.88C251.416 33.3547 251.437 35.744 251.48 38.048C251.523 40.3093 251.587 42.2933 251.672 44H246.616ZM248.6 25.632V24.032H255.448C257.923 24.032 259.885 23.5627 261.336 22.624C262.829 21.6427 263.896 20.32 264.536 18.656C265.219 16.9493 265.56 15.0507 265.56 12.96C265.56 9.76 264.728 7.24267 263.064 5.408C261.443 3.57333 258.819 2.656 255.192 2.656H248.6V1.12H256.344C259.416 1.12 261.976 1.632 264.024 2.656C266.115 3.63733 267.693 5.024 268.76 6.816C269.827 8.56533 270.36 10.6133 270.36 12.96C270.36 15.1787 269.827 17.248 268.76 19.168C267.736 21.088 266.072 22.6453 263.768 23.84C261.464 25.0347 258.413 25.632 254.616 25.632H248.6ZM241.496 2.144V1.12H250.072V2.912H248.152L241.496 2.144ZM273.871 44V42.976L280.527 42.208H282.447L289.103 42.976V44H273.871ZM278.991 44C279.076 42.2933 279.14 40.3093 279.183 38.048C279.226 35.744 279.247 33.3547 279.247 30.88C279.247 28.4053 279.247 26.0373 279.247 23.776V20.96C279.247 18.7413 279.247 16.4373 279.247 14.048C279.247 11.616 279.226 9.29066 279.183 7.072C279.14 4.81066 279.076 2.82666 278.991 1.12H284.047C283.962 2.82666 283.898 4.81066 283.855 7.072C283.812 9.29066 283.791 11.616 283.791 14.048C283.791 16.4373 283.791 18.7413 283.791 20.96V23.776C283.791 26.0373 283.791 28.4053 283.791 30.88C283.791 33.3547 283.812 35.744 283.855 38.048C283.898 40.3093 283.962 42.2933 284.047 44H278.991ZM273.871 2.144V1.12H289.103V2.144L282.447 2.912H280.527L273.871 2.144ZM294.184 44V42.976L300.84 42.208H302.632V44H294.184ZM299.304 44C299.389 42.2933 299.453 40.3093 299.496 38.048C299.538 35.744 299.56 33.3547 299.56 30.88C299.56 28.4053 299.56 26.0373 299.56 23.776V20.96C299.56 18.7413 299.56 16.4373 299.56 14.048C299.56 11.616 299.538 9.29066 299.496 7.072C299.453 4.81066 299.389 2.82666 299.304 1.12H304.36C304.274 2.82666 304.21 4.81066 304.168 7.072C304.125 9.29066 304.104 11.616 304.104 14.048C304.104 16.4373 304.104 18.7413 304.104 20.96V23.776C304.104 26.0373 304.104 28.4053 304.104 30.88C304.104 33.3547 304.125 35.744 304.168 38.048C304.21 40.3093 304.274 42.2933 304.36 44H299.304ZM301.8 44V42.464H321.192L318.76 43.232L322.664 31.968H323.688L322.92 44H301.8ZM301.8 22.88V21.344H313.32V22.88H301.8ZM314.408 29.152L312.488 22.752V21.472L314.408 15.072H315.432V29.152H314.408ZM294.184 2.144V1.12H302.632V2.912H300.84L294.184 2.144ZM321.64 12.576L317.736 1.888L320.168 2.656H301.736V1.12H321.896L322.664 12.576H321.64ZM328.934 44V42.976L335.59 42.208H337.574L343.974 42.976V44H328.934ZM334.054 44C334.139 42.2933 334.203 40.3093 334.246 38.048C334.288 35.744 334.31 33.3547 334.31 30.88C334.31 28.4053 334.31 26.0373 334.31 23.776V20.96C334.31 18.7413 334.31 16.4373 334.31 14.048C334.31 11.616 334.288 9.29066 334.246 7.072C334.203 4.81066 334.139 2.82666 334.054 1.12H339.046C339.003 2.82666 338.96 4.81066 338.918 7.072C338.875 9.29066 338.854 11.616 338.854 14.048C338.854 16.4373 338.854 18.7413 338.854 20.96V23.776C338.854 26.0373 338.854 28.4053 338.854 30.88C338.854 33.3547 338.875 35.744 338.918 38.048C338.96 40.3093 339.003 42.2933 339.046 44H334.054ZM360.486 44.512C358.523 44.512 357.094 44.2133 356.198 43.616C355.344 42.976 354.576 41.888 353.894 40.352L349.35 30.24C348.624 28.576 347.92 27.3173 347.238 26.464C346.555 25.568 345.723 24.9707 344.742 24.672C343.803 24.3307 342.544 24.16 340.966 24.16H336.102V22.624H343.526C345.702 22.624 347.515 22.1547 348.966 21.216C350.416 20.2347 351.483 18.9547 352.166 17.376C352.891 15.7547 353.254 14.0053 353.254 12.128C353.254 9.184 352.528 6.88 351.078 5.216C349.627 3.50933 347.344 2.656 344.23 2.656H336.102V1.12H344.614C348.667 1.12 351.91 2.05866 354.342 3.936C356.816 5.81333 358.054 8.52267 358.054 12.064C358.054 14.0267 357.52 15.904 356.454 17.696C355.43 19.4453 353.787 20.896 351.526 22.048C349.264 23.1573 346.299 23.712 342.63 23.712V23.264C344.208 23.264 345.595 23.4133 346.79 23.712C347.984 23.968 349.03 24.416 349.926 25.056C350.864 25.6533 351.718 26.464 352.486 27.488C353.296 28.512 354.064 29.792 354.79 31.328L360.358 42.976L357.99 42.336L364.71 42.976V44C364.326 44.0853 363.899 44.1707 363.43 44.256C363.003 44.3413 362.534 44.4053 362.022 44.448C361.552 44.4907 361.04 44.512 360.486 44.512ZM328.934 2.144V1.12H337.51V2.912H335.59L328.934 2.144ZM367.934 44V42.976L374.59 42.208H376.574L382.974 42.976V44H367.934ZM373.054 44C373.139 42.2933 373.203 40.3093 373.246 38.048C373.288 35.744 373.31 33.3547 373.31 30.88C373.31 28.4053 373.31 26.0373 373.31 23.776V20.96C373.31 18.7413 373.31 16.4373 373.31 14.048C373.31 11.616 373.288 9.29066 373.246 7.072C373.203 4.81066 373.139 2.82666 373.054 1.12H378.046C378.003 2.82666 377.96 4.81066 377.918 7.072C377.875 9.29066 377.854 11.616 377.854 14.048C377.854 16.4373 377.854 18.7413 377.854 20.96V23.776C377.854 26.0373 377.854 28.4053 377.854 30.88C377.854 33.3547 377.875 35.744 377.918 38.048C377.96 40.3093 378.003 42.2933 378.046 44H373.054ZM399.486 44.512C397.523 44.512 396.094 44.2133 395.198 43.616C394.344 42.976 393.576 41.888 392.894 40.352L388.35 30.24C387.624 28.576 386.92 27.3173 386.238 26.464C385.555 25.568 384.723 24.9707 383.742 24.672C382.803 24.3307 381.544 24.16 379.966 24.16H375.102V22.624H382.526C384.702 22.624 386.515 22.1547 387.966 21.216C389.416 20.2347 390.483 18.9547 391.166 17.376C391.891 15.7547 392.254 14.0053 392.254 12.128C392.254 9.184 391.528 6.88 390.078 5.216C388.627 3.50933 386.344 2.656 383.23 2.656H375.102V1.12H383.614C387.667 1.12 390.91 2.05866 393.342 3.936C395.816 5.81333 397.054 8.52267 397.054 12.064C397.054 14.0267 396.52 15.904 395.454 17.696C394.43 19.4453 392.787 20.896 390.526 22.048C388.264 23.1573 385.299 23.712 381.63 23.712V23.264C383.208 23.264 384.595 23.4133 385.79 23.712C386.984 23.968 388.03 24.416 388.926 25.056C389.864 25.6533 390.718 26.464 391.486 27.488C392.296 28.512 393.064 29.792 393.79 31.328L399.358 42.976L396.99 42.336L403.71 42.976V44C403.326 44.0853 402.899 44.1707 402.43 44.256C402.003 44.3413 401.534 44.4053 401.022 44.448C400.552 44.4907 400.04 44.512 399.486 44.512ZM367.934 2.144V1.12H376.51V2.912H374.59L367.934 2.144ZM406.934 44V42.976L413.59 42.208H415.382V44H406.934ZM412.054 44C412.139 42.2933 412.203 40.3093 412.246 38.048C412.288 35.744 412.31 33.3547 412.31 30.88C412.31 28.4053 412.31 26.0373 412.31 23.776V20.96C412.31 18.7413 412.31 16.4373 412.31 14.048C412.31 11.616 412.288 9.29066 412.246 7.072C412.203 4.81066 412.139 2.82666 412.054 1.12H417.11C417.024 2.82666 416.96 4.81066 416.918 7.072C416.875 9.29066 416.854 11.616 416.854 14.048C416.854 16.4373 416.854 18.7413 416.854 20.96V23.776C416.854 26.0373 416.854 28.4053 416.854 30.88C416.854 33.3547 416.875 35.744 416.918 38.048C416.96 40.3093 417.024 42.2933 417.11 44H412.054ZM414.55 44V42.464H433.942L431.51 43.232L435.414 31.968H436.438L435.67 44H414.55ZM414.55 22.88V21.344H426.07V22.88H414.55ZM427.158 29.152L425.238 22.752V21.472L427.158 15.072H428.182V29.152H427.158ZM406.934 2.144V1.12H415.382V2.912H413.59L406.934 2.144ZM434.39 12.576L430.486 1.888L432.918 2.656H414.486V1.12H434.646L435.414 12.576H434.39Z" fill="white"/>
</svg>
