<svg width="225" height="46" viewBox="0 0 225 46" fill="none" xmlns="http://www.w3.org/2000/svg">
<path d="M0.9335 44V42.976L6.8215 42.336H7.7175L13.5415 42.976V44H0.9335ZM0.9335 2.144V1.12H7.8455V2.912H7.5895L0.9335 2.144ZM6.3735 44V1.76H8.1015V20.96V44H6.3735ZM22.3735 44L7.9095 4.512H6.6935V1.12H11.6855L25.2535 38.624H23.9735L24.2295 37.856L37.6695 1.12H38.8215V4.064H38.4375L38.2455 4.512L23.7815 44H22.3735ZM33.1255 44V42.976L39.2695 42.208H41.1895L47.8455 42.976V44H33.1255ZM37.6695 44C37.7548 42.2933 37.8188 40.3093 37.8615 38.048C37.9042 35.744 37.9255 33.3547 37.9255 30.88C37.9682 28.4053 37.9895 26.0373 37.9895 23.776V1.12H42.7895C42.7042 2.82666 42.6402 4.81066 42.5975 7.072C42.5548 9.29066 42.5335 11.616 42.5335 14.048C42.5335 16.4373 42.5335 18.7413 42.5335 20.96V23.776C42.5335 26.0373 42.5335 28.4053 42.5335 30.88C42.5335 33.3547 42.5548 35.744 42.5975 38.048C42.6402 40.3093 42.7042 42.2933 42.7895 44H37.6695ZM39.2695 2.912V1.12H47.8455V2.144L41.1895 2.912H39.2695ZM50.8305 44V42.976L55.6945 42.336H56.9745L63.0545 42.976V44H50.8305ZM54.6705 44L68.6865 0.607998H70.3505L84.6865 44H79.5665L67.6625 5.472H68.8145L68.5585 6.24L56.5905 44H54.6705ZM60.7505 28.704V27.168H77.1345V28.704H60.7505ZM73.4865 44V42.976L80.3985 42.208H83.0865L88.4625 42.976V44H73.4865ZM94.4795 44V42.976L101.904 42.208H103.824L111.248 42.976V44H94.4795ZM100.368 44C100.453 42.2933 100.517 40.3093 100.56 38.048C100.602 35.744 100.624 33.3547 100.624 30.88C100.624 28.4053 100.624 26.0373 100.624 23.776V20.96C100.624 18.7413 100.624 16.4373 100.624 14.048C100.624 11.616 100.602 9.29066 100.56 7.072C100.517 4.81066 100.453 2.82666 100.368 1.12H105.424C105.338 2.82666 105.274 4.81066 105.232 7.072C105.189 9.29066 105.168 11.616 105.168 14.048C105.168 16.4373 105.168 18.7413 105.168 20.96V23.776C105.168 26.0373 105.168 28.4053 105.168 30.88C105.168 33.3547 105.189 35.744 105.232 38.048C105.274 40.3093 105.338 42.2933 105.424 44H100.368ZM86.4795 13.152L87.2475 1.12H118.544L119.312 13.152H118.288L114.384 1.888L116.816 2.656H88.9755L91.4075 1.888L87.5035 13.152H86.4795ZM123.621 44V42.976L130.277 42.208H132.069V44H123.621ZM128.741 44C128.826 42.2933 128.89 40.3093 128.933 38.048C128.976 35.744 128.997 33.3547 128.997 30.88C128.997 28.4053 128.997 26.0373 128.997 23.776V20.96C128.997 18.7413 128.997 16.4373 128.997 14.048C128.997 11.616 128.976 9.29066 128.933 7.072C128.89 4.81066 128.826 2.82666 128.741 1.12H133.797C133.712 2.82666 133.648 4.81066 133.605 7.072C133.562 9.29066 133.541 11.616 133.541 14.048C133.541 16.4373 133.541 18.7413 133.541 20.96V23.776C133.541 26.0373 133.541 28.4053 133.541 30.88C133.541 33.3547 133.562 35.744 133.605 38.048C133.648 40.3093 133.712 42.2933 133.797 44H128.741ZM131.237 44V42.464H150.629L148.197 43.232L152.101 31.968H153.125L152.357 44H131.237ZM131.237 22.88V21.344H142.757V22.88H131.237ZM143.845 29.152L141.925 22.752V21.472L143.845 15.072H144.869V29.152H143.845ZM123.621 2.144V1.12H132.069V2.912H130.277L123.621 2.144ZM151.077 12.576L147.173 1.888L149.605 2.656H131.173V1.12H151.333L152.101 12.576H151.077ZM177.071 45.024C174.383 45.024 171.951 44.512 169.775 43.488C167.599 42.464 165.871 40.8213 164.591 38.56C163.354 36.2987 162.735 33.312 162.735 29.6V20.96C162.735 18.7413 162.735 16.4373 162.735 14.048C162.735 11.616 162.714 9.29066 162.671 7.072C162.628 4.81066 162.564 2.82666 162.479 1.12H167.535C167.45 2.82666 167.386 4.81066 167.343 7.072C167.3 9.29066 167.279 11.616 167.279 14.048C167.279 16.4373 167.279 18.7413 167.279 20.96V28.832C167.279 32.0747 167.706 34.6773 168.559 36.64C169.455 38.56 170.671 39.968 172.207 40.864C173.786 41.7173 175.578 42.144 177.583 42.144C179.844 42.144 181.807 41.7387 183.471 40.928C185.178 40.0747 186.479 38.6453 187.375 36.64C188.314 34.592 188.783 31.776 188.783 28.192V1.12H190.511V28.576C190.511 32.5867 189.935 35.808 188.783 38.24C187.631 40.6293 186.052 42.3573 184.047 43.424C182.042 44.4907 179.716 45.024 177.071 45.024ZM157.871 2.144V1.12H172.591V2.144L165.999 2.912H164.079L157.871 2.144ZM183.407 2.144V1.12H195.247V2.144L190.063 2.784H189.295L183.407 2.144ZM210.387 45.024C208.125 45.024 206.013 44.704 204.051 44.064C202.131 43.424 200.488 42.6347 199.123 41.696L199.635 31.968H200.659L203.283 43.232L200.467 41.696V40.672C201.704 41.3973 202.813 41.9947 203.795 42.464C204.776 42.8907 205.779 43.2107 206.803 43.424C207.869 43.5947 209.064 43.68 210.387 43.68C212.264 43.68 213.928 43.36 215.378 42.72C216.829 42.08 217.96 41.056 218.771 39.648C219.624 38.24 220.051 36.384 220.051 34.08C220.051 32.416 219.688 31.0293 218.963 29.92C218.237 28.768 217.256 27.7867 216.019 26.976C214.824 26.1653 213.523 25.44 212.115 24.8L209.811 23.712C208.189 22.9013 206.611 22.0053 205.075 21.024C203.539 20 202.28 18.7413 201.299 17.248C200.36 15.712 199.891 13.792 199.891 11.488C199.891 9.01333 200.445 6.944 201.555 5.28C202.707 3.57333 204.243 2.29333 206.163 1.44C208.083 0.543997 210.195 0.0959969 212.499 0.0959969C214.632 0.0959969 216.488 0.37333 218.067 0.927998C219.645 1.44 221.032 2.18667 222.227 3.168L221.971 12.384H220.947L218.131 1.824L221.139 3.104L221.395 4.768C219.944 3.27467 218.493 2.35733 217.043 2.016C215.635 1.632 214.12 1.44 212.499 1.44C210.92 1.44 209.448 1.71733 208.083 2.272C206.76 2.82666 205.672 3.76533 204.819 5.088C204.008 6.368 203.603 8.096 203.603 10.272C203.603 11.8933 203.965 13.28 204.691 14.432C205.416 15.5413 206.376 16.5013 207.571 17.312C208.808 18.1227 210.131 18.8693 211.539 19.552L213.779 20.64C215.485 21.4507 217.107 22.368 218.643 23.392C220.221 24.3733 221.501 25.632 222.483 27.168C223.507 28.6613 224.019 30.6027 224.019 32.992C224.019 35.4667 223.485 37.6213 222.419 39.456C221.352 41.248 219.795 42.6347 217.747 43.616C215.741 44.5547 213.288 45.024 210.387 45.024Z" fill="black"/>
</svg>
