<svg width="225" height="46" viewBox="0 0 225 46" fill="none" xmlns="http://www.w3.org/2000/svg">
<path d="M0.90225 43V41.976L7.55825 41.208H9.54225L16.9663 41.976V43H0.90225ZM6.02225 43C6.10758 41.2933 6.17158 39.3093 6.21425 37.048C6.25692 34.744 6.27825 32.3547 6.27825 29.88C6.27825 27.4053 6.27825 25.0373 6.27825 22.776V19.96C6.27825 17.7413 6.27825 15.4373 6.27825 13.048C6.27825 10.616 6.25692 8.29066 6.21425 6.072C6.17158 3.81066 6.10758 1.82666 6.02225 0.119999H11.0783C10.9929 1.82666 10.9289 3.81066 10.8863 6.072C10.8436 8.29066 10.8223 10.616 10.8223 13.048C10.8223 15.4373 10.8223 17.7413 10.8223 19.96V22.776C10.8223 25.0373 10.8223 27.4053 10.8223 29.88C10.8223 32.3547 10.8436 34.744 10.8863 37.048C10.9289 39.3093 10.9929 41.2933 11.0783 43H6.02225ZM8.00625 24.632V23.032H14.8542C17.3289 23.032 19.2916 22.5627 20.7423 21.624C22.2356 20.6427 23.3023 19.32 23.9423 17.656C24.6249 15.9493 24.9663 14.0507 24.9663 11.96C24.9663 8.76 24.1343 6.24267 22.4703 4.408C20.8489 2.57333 18.2249 1.656 14.5983 1.656H8.00625V0.119999H15.7503C18.8223 0.119999 21.3823 0.631999 23.4303 1.656C25.5209 2.63733 27.0996 4.024 28.1663 5.816C29.2329 7.56533 29.7663 9.61333 29.7663 11.96C29.7663 14.1787 29.2329 16.248 28.1663 18.168C27.1423 20.088 25.4783 21.6453 23.1743 22.84C20.8703 24.0347 17.8196 24.632 14.0223 24.632H8.00625ZM0.90225 1.144V0.119999H9.47825V1.912H7.55825L0.90225 1.144ZM33.2773 43V41.976L39.9333 41.208H41.8533L48.5093 41.976V43H33.2773ZM38.3973 43C38.4826 41.2933 38.5466 39.3093 38.5893 37.048C38.6319 34.744 38.6533 32.3547 38.6533 29.88C38.6533 27.4053 38.6533 25.0373 38.6533 22.776V19.96C38.6533 17.7413 38.6533 15.4373 38.6533 13.048C38.6533 10.616 38.6319 8.29066 38.5893 6.072C38.5466 3.81066 38.4826 1.82666 38.3973 0.119999H43.4533C43.3679 1.82666 43.3039 3.81066 43.2613 6.072C43.2186 8.29066 43.1973 10.616 43.1973 13.048C43.1973 15.4373 43.1973 17.7413 43.1973 19.96V22.776C43.1973 25.0373 43.1973 27.4053 43.1973 29.88C43.1973 32.3547 43.2186 34.744 43.2613 37.048C43.3039 39.3093 43.3679 41.2933 43.4533 43H38.3973ZM33.2773 1.144V0.119999H48.5093V1.144L41.8533 1.912H39.9333L33.2773 1.144ZM53.5898 43V41.976L60.2458 41.208H62.0378V43H53.5898ZM58.7098 43C58.7951 41.2933 58.8591 39.3093 58.9018 37.048C58.9444 34.744 58.9658 32.3547 58.9658 29.88C58.9658 27.4053 58.9658 25.0373 58.9658 22.776V19.96C58.9658 17.7413 58.9658 15.4373 58.9658 13.048C58.9658 10.616 58.9444 8.29066 58.9018 6.072C58.8591 3.81066 58.7951 1.82666 58.7098 0.119999H63.7658C63.6804 1.82666 63.6164 3.81066 63.5738 6.072C63.5311 8.29066 63.5098 10.616 63.5098 13.048C63.5098 15.4373 63.5098 17.7413 63.5098 19.96V22.776C63.5098 25.0373 63.5098 27.4053 63.5098 29.88C63.5098 32.3547 63.5311 34.744 63.5738 37.048C63.6164 39.3093 63.6804 41.2933 63.7658 43H58.7098ZM61.2058 43V41.464H80.5978L78.1658 42.232L82.0698 30.968H83.0938L82.3258 43H61.2058ZM61.2058 21.88V20.344H72.7258V21.88H61.2058ZM73.8138 28.152L71.8938 21.752V20.472L73.8138 14.072H74.8378V28.152H73.8138ZM53.5898 1.144V0.119999H62.0378V1.912H60.2458L53.5898 1.144ZM81.0458 11.576L77.1418 0.887997L79.5738 1.656H61.1418V0.119999H81.3018L82.0698 11.576H81.0458ZM88.3398 43V41.976L94.9958 41.208H96.9798L103.38 41.976V43H88.3398ZM93.4598 43C93.5451 41.2933 93.6091 39.3093 93.6518 37.048C93.6944 34.744 93.7158 32.3547 93.7158 29.88C93.7158 27.4053 93.7158 25.0373 93.7158 22.776V19.96C93.7158 17.7413 93.7158 15.4373 93.7158 13.048C93.7158 10.616 93.6944 8.29066 93.6518 6.072C93.6091 3.81066 93.5451 1.82666 93.4598 0.119999H98.4518C98.4091 1.82666 98.3664 3.81066 98.3238 6.072C98.2811 8.29066 98.2598 10.616 98.2598 13.048C98.2598 15.4373 98.2598 17.7413 98.2598 19.96V22.776C98.2598 25.0373 98.2598 27.4053 98.2598 29.88C98.2598 32.3547 98.2811 34.744 98.3238 37.048C98.3664 39.3093 98.4091 41.2933 98.4518 43H93.4598ZM119.892 43.512C117.929 43.512 116.5 43.2133 115.604 42.616C114.75 41.976 113.982 40.888 113.3 39.352L108.756 29.24C108.03 27.576 107.326 26.3173 106.644 25.464C105.961 24.568 105.129 23.9707 104.148 23.672C103.209 23.3307 101.95 23.16 100.372 23.16H95.5078V21.624H102.932C105.108 21.624 106.921 21.1547 108.372 20.216C109.822 19.2347 110.889 17.9547 111.572 16.376C112.297 14.7547 112.66 13.0053 112.66 11.128C112.66 8.184 111.934 5.88 110.484 4.216C109.033 2.50933 106.75 1.656 103.636 1.656H95.5078V0.119999H104.02C108.073 0.119999 111.316 1.05866 113.748 2.936C116.222 4.81333 117.46 7.52267 117.46 11.064C117.46 13.0267 116.926 14.904 115.86 16.696C114.836 18.4453 113.193 19.896 110.932 21.048C108.67 22.1573 105.705 22.712 102.036 22.712V22.264C103.614 22.264 105.001 22.4133 106.196 22.712C107.39 22.968 108.436 23.416 109.332 24.056C110.27 24.6533 111.124 25.464 111.892 26.488C112.702 27.512 113.47 28.792 114.196 30.328L119.764 41.976L117.396 41.336L124.116 41.976V43C123.732 43.0853 123.305 43.1707 122.836 43.256C122.409 43.3413 121.94 43.4053 121.428 43.448C120.958 43.4907 120.446 43.512 119.892 43.512ZM88.3398 1.144V0.119999H96.9158V1.912H94.9958L88.3398 1.144ZM127.34 43V41.976L133.996 41.208H135.98L142.38 41.976V43H127.34ZM132.46 43C132.545 41.2933 132.609 39.3093 132.652 37.048C132.694 34.744 132.716 32.3547 132.716 29.88C132.716 27.4053 132.716 25.0373 132.716 22.776V19.96C132.716 17.7413 132.716 15.4373 132.716 13.048C132.716 10.616 132.694 8.29066 132.652 6.072C132.609 3.81066 132.545 1.82666 132.46 0.119999H137.452C137.409 1.82666 137.366 3.81066 137.324 6.072C137.281 8.29066 137.26 10.616 137.26 13.048C137.26 15.4373 137.26 17.7413 137.26 19.96V22.776C137.26 25.0373 137.26 27.4053 137.26 29.88C137.26 32.3547 137.281 34.744 137.324 37.048C137.366 39.3093 137.409 41.2933 137.452 43H132.46ZM158.892 43.512C156.929 43.512 155.5 43.2133 154.604 42.616C153.75 41.976 152.982 40.888 152.3 39.352L147.756 29.24C147.03 27.576 146.326 26.3173 145.644 25.464C144.961 24.568 144.129 23.9707 143.148 23.672C142.209 23.3307 140.95 23.16 139.372 23.16H134.508V21.624H141.932C144.108 21.624 145.921 21.1547 147.372 20.216C148.822 19.2347 149.889 17.9547 150.572 16.376C151.297 14.7547 151.66 13.0053 151.66 11.128C151.66 8.184 150.934 5.88 149.484 4.216C148.033 2.50933 145.75 1.656 142.636 1.656H134.508V0.119999H143.02C147.073 0.119999 150.316 1.05866 152.748 2.936C155.222 4.81333 156.46 7.52267 156.46 11.064C156.46 13.0267 155.926 14.904 154.86 16.696C153.836 18.4453 152.193 19.896 149.932 21.048C147.67 22.1573 144.705 22.712 141.036 22.712V22.264C142.614 22.264 144.001 22.4133 145.196 22.712C146.39 22.968 147.436 23.416 148.332 24.056C149.27 24.6533 150.124 25.464 150.892 26.488C151.702 27.512 152.47 28.792 153.196 30.328L158.764 41.976L156.396 41.336L163.116 41.976V43C162.732 43.0853 162.305 43.1707 161.836 43.256C161.409 43.3413 160.94 43.4053 160.428 43.448C159.958 43.4907 159.446 43.512 158.892 43.512ZM127.34 1.144V0.119999H135.916V1.912H133.996L127.34 1.144ZM166.34 43V41.976L172.996 41.208H174.788V43H166.34ZM171.46 43C171.545 41.2933 171.609 39.3093 171.652 37.048C171.694 34.744 171.716 32.3547 171.716 29.88C171.716 27.4053 171.716 25.0373 171.716 22.776V19.96C171.716 17.7413 171.716 15.4373 171.716 13.048C171.716 10.616 171.694 8.29066 171.652 6.072C171.609 3.81066 171.545 1.82666 171.46 0.119999H176.516C176.43 1.82666 176.366 3.81066 176.324 6.072C176.281 8.29066 176.26 10.616 176.26 13.048C176.26 15.4373 176.26 17.7413 176.26 19.96V22.776C176.26 25.0373 176.26 27.4053 176.26 29.88C176.26 32.3547 176.281 34.744 176.324 37.048C176.366 39.3093 176.43 41.2933 176.516 43H171.46ZM173.956 43V41.464H193.348L190.916 42.232L194.82 30.968H195.844L195.076 43H173.956ZM173.956 21.88V20.344H185.476V21.88H173.956ZM186.564 28.152L184.644 21.752V20.472L186.564 14.072H187.588V28.152H186.564ZM166.34 1.144V0.119999H174.788V1.912H172.996L166.34 1.144ZM193.796 11.576L189.892 0.887997L192.324 1.656H173.892V0.119999H194.052L194.82 11.576H193.796Z" fill="white"/>
</svg>
